<?xml version="1.0" encoding="utf-8"?>
<svg version="1.1" xmlns:xlink="http://www.w3.org/1999/xlink" width="23px" height="23px" xmlns="http://www.w3.org/2000/svg">
  <g transform="matrix(1 0 0 1 -216 -4 )">
    <path d="M 227.5 4  C 233.94 4  239 9.06  239 15.5  C 239 21.94  233.94 27  227.5 27  C 221.06 27  216 21.94  216 15.5  C 216 9.06  221.06 4  227.5 4  Z " fill-rule="nonzero" fill="#ffffff" stroke="none" />
    <path d="M 227.5 4.5  C 233.66 4.5  238.5 9.34  238.5 15.5  C 238.5 21.66  233.66 26.5  227.5 26.5  C 221.34 26.5  216.5 21.66  216.5 15.5  C 216.5 9.34  221.34 4.5  227.5 4.5  Z " stroke-width="1" stroke="#797979" fill="none" />
  </g>
</svg>