<?xml version="1.0" encoding="utf-8"?>
<svg version="1.1" xmlns:xlink="http://www.w3.org/1999/xlink" width="10px" height="15px" xmlns="http://www.w3.org/2000/svg">
  <g transform="matrix(1 0 0 1 -344 -179 )">
    <path d="M 9.76430976430976 11.2121212121212  C 9.92143658810325 11.4478114478114  10 11.7340067340067  10 12.0707070707071  C 10 12.4074074074074  9.92143658810325 12.6936026936027  9.76430976430976 12.9292929292929  L 8.61952861952862 14.6464646464646  C 8.46240179573513 14.8821548821549  8.2716049382716 15  8.04713804713805 15  C 7.82267115600449 15  7.63187429854097 14.8821548821549  7.47474747474747 14.6464646464646  L 5 10.9343434343434  L 2.52525252525253 14.6464646464646  C 2.36812570145903 14.8821548821549  2.17732884399551 15  1.95286195286195 15  C 1.7283950617284 15  1.53759820426487 14.8821548821549  1.38047138047138 14.6464646464646  L 0.235690235690236 12.9292929292929  C 0.0785634118967453 12.6936026936027  0 12.4074074074074  0 12.0707070707071  C 0 11.7340067340067  0.0785634118967453 11.4478114478114  0.235690235690236 11.2121212121212  L 2.71043771043771 7.5  L 0.235690235690236 3.78787878787879  C 0.0785634118967453 3.55218855218855  0 3.26599326599327  0 2.92929292929293  C 0 2.59259259259259  0.0785634118967453 2.3063973063973  0.235690235690236 2.07070707070707  L 1.38047138047138 0.353535353535354  C 1.53759820426487 0.117845117845117  1.7283950617284 0  1.95286195286195 0  C 2.17732884399551 0  2.36812570145903 0.117845117845117  2.52525252525253 0.353535353535354  L 5 4.06565656565657  L 7.47474747474747 0.353535353535354  C 7.63187429854097 0.117845117845117  7.82267115600449 0  8.04713804713805 0  C 8.2716049382716 0  8.46240179573513 0.117845117845117  8.61952861952862 0.353535353535354  L 9.76430976430976 2.07070707070707  C 9.92143658810325 2.3063973063973  10 2.59259259259259  10 2.92929292929293  C 10 3.26599326599327  9.92143658810325 3.55218855218855  9.76430976430976 3.78787878787879  L 7.28956228956229 7.5  L 9.76430976430976 11.2121212121212  Z " fill-rule="nonzero" fill="#ffffff" stroke="none" transform="matrix(1 0 0 1 344 179 )" />
  </g>
</svg>