<?xml version="1.0" encoding="utf-8"?>
<svg version="1.1" xmlns:xlink="http://www.w3.org/1999/xlink" width="12px" height="12px" viewBox="165 335  12 12" xmlns="http://www.w3.org/2000/svg">
  <path d="M 171 335  C 174.36 335  177 337.64  177 341  C 177 344.36  174.36 347  171 347  C 167.64 347  165 344.36  165 341  C 165 337.64  167.64 335  171 335  Z " fill-rule="nonzero" fill="#f0f0f0" stroke="none" />
  <path d="M 171 335.5  C 174.08 335.5  176.5 337.92  176.5 341  C 176.5 344.08  174.08 346.5  171 346.5  C 167.92 346.5  165.5 344.08  165.5 341  C 165.5 337.92  167.92 335.5  171 335.5  Z " stroke-width="1" stroke="#797979" fill="none" />
  <path d="M 171 344  C 169.32 344  168 342.68  168 341  C 168 339.32  169.32 338  171 338  C 172.68 338  174 339.32  174 341  C 174 342.68  172.68 344  171 344  " fill-rule="nonzero" fill="#797979" stroke="none" />
</svg>