<?xml version="1.0" encoding="utf-8"?>
<svg version="1.1" xmlns:xlink="http://www.w3.org/1999/xlink" width="12px" height="12px" viewBox="673 456  12 12" xmlns="http://www.w3.org/2000/svg">
  <path d="M 679 456  C 682.36 456  685 458.64  685 462  C 685 465.36  682.36 468  679 468  C 675.64 468  673 465.36  673 462  C 673 458.64  675.64 456  679 456  Z " fill-rule="nonzero" fill="#f0f0f0" stroke="none" />
  <path d="M 679 456.5  C 682.08 456.5  684.5 458.92  684.5 462  C 684.5 465.08  682.08 467.5  679 467.5  C 675.92 467.5  673.5 465.08  673.5 462  C 673.5 458.92  675.92 456.5  679 456.5  Z " stroke-width="1" stroke="#797979" fill="none" />
  <path d="M 679 465  C 677.32 465  676 463.68  676 462  C 676 460.32  677.32 459  679 459  C 680.68 459  682 460.32  682 462  C 682 463.68  680.68 465  679 465  " fill-rule="nonzero" fill="#797979" stroke="none" />
</svg>