<?xml version="1.0" encoding="utf-8"?>
<svg version="1.1" xmlns:xlink="http://www.w3.org/1999/xlink" width="30px" height="30px" xmlns="http://www.w3.org/2000/svg">
  <g transform="matrix(1 0 0 1 -322 -12 )">
    <path d="M 22.75390625 13.9453125  C 23.0013020833333 14.2421875  23.125 14.59375  23.125 15  C 23.125 15.40625  23.0013020833333 15.7578125  22.75390625 16.0546875  L 12.12890625 28.8046875  C 11.8815104166667 29.1015625  11.5885416666667 29.25  11.25 29.25  C 10.9114583333333 29.25  10.6184895833333 29.1015625  10.37109375 28.8046875  C 10.1236979166667 28.5078125  10 28.15625  10 27.75  L 10 21  L 1.25 21  C 0.911458333333333 21  0.618489583333333 20.8515625  0.37109375 20.5546875  C 0.123697916666667 20.2578125  0 19.90625  0 19.5  L 0 10.5  C 0 10.09375  0.123697916666667 9.7421875  0.37109375 9.4453125  C 0.618489583333333 9.1484375  0.911458333333333 9  1.25 9  L 10 9  L 10 2.25  C 10 1.84375  10.1236979166667 1.4921875  10.37109375 1.1953125  C 10.6184895833333 0.898437499999999  10.9114583333333 0.750000000000001  11.25 0.750000000000001  C 11.5885416666667 0.750000000000001  11.8815104166667 0.898437499999999  12.12890625 1.1953125  L 22.75390625 13.9453125  Z M 28.349609375 1.98046875  C 29.4498697916667 3.30078125  30 4.89062499999999  30 6.75  L 30 23.25  C 30 25.109375  29.4498697916667 26.69921875  28.349609375 28.01953125  C 27.2493489583333 29.33984375  25.9244791666667 30  24.375 30  L 18.125 30  C 17.9557291666667 30  17.8092447916667 29.92578125  17.685546875 29.77734375  C 17.5618489583333 29.62890625  17.5 29.453125  17.5 29.25  C 17.5 29.1875  17.4934895833333 29.03125  17.48046875 28.78125  C 17.4674479166667 28.53125  17.4641927083333 28.32421875  17.470703125 28.16015625  C 17.4772135416667 27.99609375  17.4967447916667 27.8125  17.529296875 27.609375  C 17.5618489583333 27.40625  17.626953125 27.25390625  17.724609375 27.15234375  C 17.822265625 27.05078125  17.9557291666667 27  18.125 27  L 24.375 27  C 25.234375 27  25.9700520833333 26.6328125  26.58203125 25.8984375  C 27.1940104166667 25.1640625  27.5 24.28125  27 23.25  L 27 6.75  C 27.5 5.71875  27.1940104166667 4.8359375  26.58203125 4.1015625  C 25.9700520833333 3.3671875  25.234375 3  24.375 3  L 18.75 3  L 18.53515625 3  L 18.28125 3  C 18.28125 3  18.2063802083333 2.9921875  18.056640625 2.9765625  C 17.9069010416667 2.9609375  17.83203125 2.9375  17.83203125 2.90625  C 17.83203125 2.875  17.7799479166667 2.83203125  17.67578125 2.77734375  C 17.5716145833333 2.72265625  17.5260416666667 2.65234375  17.5390625 2.56640625  C 17.5520833333333 2.48046875  17.5390625 2.375  17.5 2.25  C 17.5 2.1875  17.4934895833333 2.03125  17.48046875 1.78125  C 17.4674479166667 1.53125  17.4641927083333 1.32421875  17.470703125 1.16015625  C 17.4772135416667 0.99609375  17.4967447916667 0.812499999999997  17.529296875 0.609374999999999  C 17.5618489583333 0.406249999999997  17.626953125 0.253906249999999  17.724609375 0.152343750000001  C 17.822265625 0.0507812499999971  17.9557291666667 0  18.125 0  L 24.375 0  C 25.9244791666667 0  27.2493489583333 0.660156249999996  28.349609375 1.98046875  Z " fill-rule="nonzero" fill="#ffffff" stroke="none" transform="matrix(1 0 0 1 322 12 )" />
  </g>
</svg>