<?xml version="1.0" encoding="utf-8"?>
<svg version="1.1" xmlns:xlink="http://www.w3.org/1999/xlink" width="19px" height="20px" xmlns="http://www.w3.org/2000/svg">
  <g transform="matrix(1 0 0 1 -329 -250 )">
    <path d="M 18.5521885521886 14.9494949494949  C 18.8507295173962 15.2637485970819  19 15.645342312009  19 16.0942760942761  C 19 16.5432098765432  18.8507295173962 16.9248035914703  18.5521885521886 17.2390572390572  L 16.3771043771044 19.5286195286195  C 16.0785634118967 19.8428731762065  15.716049382716 20  15.2895622895623 20  C 14.8630751964085 20  14.5005611672278 19.8428731762065  14.2020202020202 19.5286195286195  L 9.5 14.5791245791246  L 4.7979797979798 19.5286195286195  C 4.49943883277217 19.8428731762065  4.13692480359147 20  3.71043771043771 20  C 3.28395061728395 20  2.92143658810326 19.8428731762065  2.62289562289562 19.5286195286195  L 0.447811447811448 17.2390572390572  C 0.149270482603816 16.9248035914703  0 16.5432098765432  0 16.0942760942761  C 0 15.645342312009  0.149270482603816 15.2637485970819  0.447811447811448 14.9494949494949  L 5.14983164983165 10  L 0.447811447811448 5.05050505050505  C 0.149270482603816 4.73625140291807  0 4.35465768799102  0 3.90572390572391  C 0 3.45679012345679  0.149270482603816 3.07519640852974  0.447811447811448 2.76094276094276  L 2.62289562289562 0.471380471380471  C 2.92143658810326 0.15712682379349  3.28395061728395 0  3.71043771043771 0  C 4.13692480359147 0  4.49943883277217 0.15712682379349  4.7979797979798 0.471380471380471  L 9.5 5.42087542087542  L 14.2020202020202 0.471380471380471  C 14.5005611672278 0.15712682379349  14.8630751964085 0  15.2895622895623 0  C 15.716049382716 0  16.0785634118967 0.15712682379349  16.3771043771044 0.471380471380471  L 18.5521885521886 2.76094276094276  C 18.8507295173962 3.07519640852974  19 3.45679012345679  19 3.90572390572391  C 19 4.35465768799102  18.8507295173962 4.73625140291807  18.5521885521886 5.05050505050505  L 13.8501683501683 10  L 18.5521885521886 14.9494949494949  Z " fill-rule="nonzero" fill="#ffffff" stroke="none" transform="matrix(1 0 0 1 329 250 )" />
  </g>
</svg>