<?xml version="1.0" encoding="utf-8"?>
<svg version="1.1" xmlns:xlink="http://www.w3.org/1999/xlink" width="25px" height="17px" xmlns="http://www.w3.org/2000/svg">
  <g transform="matrix(1 0 0 1 34 -7 )">
    <path d="M 24.4107744107744 12.7070707070707  C 24.8035914702581 12.9741863075196  25 13.2985409652076  25 13.6801346801347  C 25 14.0617283950617  24.8035914702581 14.3860830527497  24.4107744107744 14.6531986531987  L 21.5488215488215 16.5993265993266  C 21.1560044893378 16.8664421997755  20.679012345679 17  20.1178451178451 17  C 19.5566778900112 17  19.0796857463524 16.8664421997755  18.6868686868687 16.5993265993266  L 12.5 12.3922558922559  L 6.31313131313131 16.5993265993266  C 5.92031425364759 16.8664421997755  5.44332210998878 17  4.88215488215488 17  C 4.32098765432099 17  3.84399551066218 16.8664421997755  3.45117845117845 16.5993265993266  L 0.589225589225589 14.6531986531987  C 0.196408529741863 14.3860830527497  0 14.0617283950617  0 13.6801346801347  C 0 13.2985409652076  0.196408529741863 12.9741863075196  0.589225589225589 12.7070707070707  L 6.77609427609428 8.5  L 0.589225589225589 4.29292929292929  C 0.196408529741863 4.02581369248036  0 3.70145903479237  0 3.31986531986532  C 0 2.93827160493827  0.196408529741863 2.61391694725028  0.589225589225589 2.34680134680135  L 3.45117845117845 0.400673400673401  C 3.84399551066218 0.133557800224466  4.32098765432099 0  4.88215488215488 0  C 5.44332210998878 0  5.92031425364759 0.133557800224466  6.31313131313131 0.400673400673401  L 12.5 4.60774410774411  L 18.6868686868687 0.400673400673401  C 19.0796857463524 0.133557800224466  19.5566778900112 0  20.1178451178451 0  C 20.679012345679 0  21.1560044893378 0.133557800224466  21.5488215488215 0.400673400673401  L 24.4107744107744 2.34680134680135  C 24.8035914702581 2.61391694725028  25 2.93827160493827  25 3.31986531986532  C 25 3.70145903479237  24.8035914702581 4.02581369248036  24.4107744107744 4.29292929292929  L 18.2239057239057 8.5  L 24.4107744107744 12.7070707070707  Z " fill-rule="nonzero" fill="#d9001b" stroke="none" transform="matrix(1 0 0 1 -34 7 )" />
  </g>
</svg>