<?xml version="1.0" encoding="utf-8"?>
<svg version="1.1" xmlns:xlink="http://www.w3.org/1999/xlink" width="26px" height="19px" xmlns="http://www.w3.org/2000/svg">
  <g transform="matrix(1 0 0 1 36 -6 )">
    <path d="M 25.3872053872054 14.2020202020202  C 25.7957351290685 14.5005611672278  26 14.8630751964085  26 15.2895622895623  C 26 15.7160493827161  25.7957351290685 16.0785634118967  25.3872053872054 16.3771043771044  L 22.4107744107744 18.5521885521886  C 22.0022446689113 18.8507295173962  21.5061728395062 19  20.9225589225589 19  C 20.3389450056117 19  19.8428731762065 18.8507295173962  19.4343434343434 18.5521885521886  L 13 13.8501683501684  L 6.56565656565657 18.5521885521886  C 6.15712682379349 18.8507295173962  5.66105499438833 19  5.07744107744108 19  C 4.49382716049383 19  3.99775533108867 18.8507295173962  3.58922558922559 18.5521885521886  L 0.612794612794613 16.3771043771044  C 0.204264870931538 16.0785634118967  0 15.7160493827161  0 15.2895622895623  C 0 14.8630751964085  0.204264870931538 14.5005611672278  0.612794612794613 14.2020202020202  L 7.04713804713805 9.5  L 0.612794612794613 4.7979797979798  C 0.204264870931538 4.49943883277216  0 4.13692480359147  0 3.71043771043771  C 0 3.28395061728395  0.204264870931538 2.92143658810325  0.612794612794613 2.62289562289562  L 3.58922558922559 0.447811447811448  C 3.99775533108867 0.149270482603815  4.49382716049383 0  5.07744107744108 0  C 5.66105499438833 0  6.15712682379349 0.149270482603815  6.56565656565657 0.447811447811448  L 13 5.14983164983165  L 19.4343434343434 0.447811447811448  C 19.8428731762065 0.149270482603815  20.3389450056117 0  20.9225589225589 0  C 21.5061728395062 0  22.0022446689113 0.149270482603815  22.4107744107744 0.447811447811448  L 25.3872053872054 2.62289562289562  C 25.7957351290685 2.92143658810325  26 3.28395061728395  26 3.71043771043771  C 26 4.13692480359147  25.7957351290685 4.49943883277216  25.3872053872054 4.7979797979798  L 18.952861952862 9.5  L 25.3872053872054 14.2020202020202  Z " fill-rule="nonzero" fill="#d9001b" stroke="none" transform="matrix(1 0 0 1 -36 6 )" />
  </g>
</svg>